# xmcd
#
# Track frame offsets:
#	182
#	33685
#	56742
#	89190
#	123662
#	150552
#	188502
#	225075
#	244740
#	277482
# Disc length: 3843 seconds
# Revision: 1
# Processed by: cddbd v1.5.2PL0 Copyright (c) Steve Scherf et al.
#
# Submitted via: libkcddb 0.31
#
DISCID=8c0f010a
DTITLE=Antonin Dvorak - Musique de chambre Vol. 5
DYEAR=1999
DGENRE=Chamber Music
TTITLE0=String Quartet No. 6 in a minor Op. 12 (B. 40) - Allegro ma non troppo
TTITLE1=String Quartet No. 6 in a minor Op. 12 (B. 40) - Poco allegro
TTITLE2=String Quartet No. 6 in a minor Op. 12 (B. 40) - Poco adagio
TTITLE3=String Quartet No. 6 in a minor Op. 12 (B. 40) - Finale. Allegro molto
TTITLE4=Andante appassionato (B. 40a)
TTITLE5=String Quartet No. 7 in a minor Op. 16 (B. 45) - Allegro ma non troppo
TTITLE6=String Quartet No. 7 in a minor Op. 16 (B. 45) - Andante cantabile
TTITLE7=String Quartet No. 7 in a minor Op. 16 (B. 45) - Allegro scherzando
TTITLE8=String Quartet No. 7 in a minor Op. 16 (B. 45) - Allegro ma non troppo
TTITLE9=Gavotte for 3 violins (B. 164)
EXTD=Panocha Quartet
EXTT0=
EXTT1=
EXTT2=
EXTT3=
EXTT4=
EXTT5=
EXTT6=
EXTT7=
EXTT8=
EXTT9=
PLAYORDER=
